<svg width="400" height="400" viewBox="0 0 400 400" xmlns="http://www.w3.org/2000/svg">
  <rect id="background" width="400" height="400" fill="#0A1626"/>
  
  <g id="ledger-grid" stroke="#1D3A59" stroke-width="1.5">
    <line x1="100" y1="50" x2="100" y2="350"/>
    <line x1="150" y1="50" x2="150" y2="350"/>
    <line x1="200" y1="50" x2="200" y2="350"/>
    <line x1="250" y1="50" x2="250" y2="350"/>
    <line x1="300" y1="50" x2="300" y2="350"/>
    <line x1="50" y1="100" x2="350" y2="100"/>
    <line x1="50" y1="150" x2="350" y2="150"/>
    <line x1="50" y1="200" x2="350" y2="200"/>
    <line x1="50" y1="250" x2="350" y2="250"/>
    <line x1="50" y1="300" x2="350" y2="300"/>
  </g>

  <path id="control-frame" d="M280 100 H120 V280 H280 V200 H180" 
        fill="none" stroke="#3A86D9" stroke-width="12" stroke-linecap="round" stroke-linejoin="round"/>

  <g id="nodes">
    <circle cx="120" cy="100" r="10" fill="#3A86D9"/>
    <circle cx="120" cy="280" r="10" fill="#3A86D9"/>
    <circle cx="280" cy="280" r="10" fill="#3A86D9"/>
    <circle cx="280" cy="200" r="10" fill="#3A86D9"/>
    <circle cx="180" cy="200" r="10" fill="#3A86D9"/>
    <circle id="certification-node" cx="280" cy="100" r="16" fill="#D4AF37"/>
  </g>

  <g id="enforcement-core">
    <circle cx="200" cy="200" r="38" fill="black"/>
    <path id="physics-bolt" d="M205 165 L182 212 H200 L195 240 L222 192 H202 Z" 
          fill="#FFD100"/>
  </g>
</svg>
